<svg width="24" height="24" viewBox="0 0 24 24" fill="none" xmlns="http://www.w3.org/2000/svg">
<rect width="24" height="24" rx="6" fill="#0079C2"/>
<path fill-rule="evenodd" clip-rule="evenodd" d="M13.4671 6.81637C13.1651 5.51266 12.4047 4.45436 12.3006 4.28564C12.1339 4.53105 11.5298 5.46154 11.2226 6.49939C10.8893 7.65484 10.8372 8.68247 10.9518 9.68964C11.0663 10.7019 11.5038 11.7347 11.5038 11.7347C11.7329 12.2766 12.0819 12.8594 12.3058 13.1458C12.6339 12.7265 13.3942 11.4688 13.6338 9.82768C13.764 8.91253 13.7692 8.11497 13.4671 6.81637ZM12.3006 12.8237C12.1548 12.5476 11.9204 12.0261 11.8996 11.2183C11.8944 10.4361 12.2121 9.76633 12.3058 9.62829C12.3891 9.76633 12.6651 10.3543 12.6964 11.1518C12.7172 11.9341 12.4516 12.5476 12.3006 12.8288V12.8237ZM13.3786 9.02501C13.3682 9.52093 13.3057 10.0475 13.2276 10.3594C13.2536 9.82257 13.1911 9.0608 13.0609 8.46262C12.9359 7.86956 12.5766 6.87772 12.2902 6.41759C12.0246 6.85216 11.7017 7.71107 11.5298 8.45751C11.358 9.20395 11.3528 10.1038 11.3528 10.3747C11.3059 10.1447 11.1913 9.33176 11.2278 8.51886C11.2538 7.844 11.4153 7.1538 11.5038 6.83171C11.8371 5.76829 12.2173 5.08832 12.2902 4.98096C12.3631 5.08832 12.8422 5.92678 13.087 6.80615C13.3369 7.68551 13.3838 8.52909 13.3734 9.02501H13.3786Z" fill="white"/>
<path fill-rule="evenodd" clip-rule="evenodd" d="M12.816 13.4525H10.5141V14.971C10.5141 14.971 10.5141 14.971 10.5193 14.9659C11.0609 14.4341 11.941 14.4341 12.4826 14.9659C13.0243 15.4976 13.0243 16.3616 12.4826 16.8933C12.4826 16.8933 12.4826 16.8933 12.4774 16.8984C12.4774 16.8984 12.4722 16.8984 12.467 16.9035C11.9254 17.4301 11.2171 17.696 10.5141 17.696C9.81103 17.696 9.09234 17.4301 8.55073 16.8984C7.59769 15.9628 7.48312 14.5108 8.21222 13.4525C8.31117 13.3094 8.42574 13.1713 8.55073 13.0486C9.09234 12.5169 9.80061 12.2511 10.5141 12.2511V8.60581C7.78517 8.60581 5.57184 10.7787 5.57184 13.4525C5.57184 16.1315 7.78517 18.3044 10.5141 18.3044C11.9358 18.3044 13.217 17.7113 14.1179 16.7706V13.4576H12.816V13.4525Z" fill="white"/>
<path d="M17.2115 17.8289V14.0047H17.3417C17.399 14.0047 17.4407 14.0252 17.4771 14.0712C17.5084 14.1121 17.5292 14.1734 17.5292 14.2501V17.5835C17.5292 17.6602 17.5084 17.7216 17.4771 17.7625C17.4407 17.8034 17.399 17.8289 17.3417 17.8289H17.2115ZM16.2116 18.3709H17.7792C17.951 18.3709 18.0917 18.3402 18.1906 18.284C18.2896 18.2277 18.3677 18.151 18.4145 18.0641C18.4614 17.9721 18.4927 17.8801 18.5031 17.7778C18.5187 17.6807 18.5239 17.5835 18.5187 17.4966V14.3422C18.5187 14.2552 18.5187 14.1581 18.5031 14.061C18.4875 13.9587 18.4614 13.8667 18.4145 13.7747C18.3677 13.6826 18.2896 13.6111 18.1906 13.5548C18.0917 13.4986 17.951 13.4679 17.7792 13.4679H16.2116V18.3709ZM14.7638 18.3709H15.7638V13.4679H14.7638V18.3709Z" fill="white"/>
</svg>
