<svg width="24" height="24" viewBox="0 0 24 24" fill="none" xmlns="http://www.w3.org/2000/svg">
<rect width="24" height="24" rx="6" fill="#0070FF"/>
<path fill-rule="evenodd" clip-rule="evenodd" d="M18.5987 11.3806C18.7194 11.0804 18.7751 10.7582 18.7621 10.4349C18.7475 10.0695 18.6124 9.70471 18.3419 8.97553L18.049 8.18615C17.7245 7.31088 17.5623 6.87355 17.2905 6.52736C17.0502 6.22108 16.7486 5.96795 16.4052 5.78454C16.0171 5.57699 15.5582 5.49316 14.6399 5.32555L13.8116 5.17419C13.0466 5.0344 12.6639 4.96467 12.3014 5.0138C11.9808 5.05717 11.6731 5.16795 11.3985 5.33892C11.088 5.53188 10.8383 5.82954 10.339 6.42451L9.55969 7.35328C9.06016 7.94859 8.8104 8.24624 8.67456 8.58517C8.55388 8.88533 8.4982 9.20755 8.51116 9.53083C8.52571 9.89631 8.66083 10.2611 8.93135 10.9902L9.22424 11.7796C9.23782 11.8162 9.25097 11.8513 9.26384 11.8868L5.69604 16.1387L6.25038 18.7632L8.92062 18.8444L12.4727 14.6112L12.6337 14.6405L13.4619 14.7919C14.227 14.9317 14.6097 15.0014 14.9722 14.9522C15.2928 14.9089 15.6004 14.7981 15.8751 14.6271C16.1856 14.4342 16.4353 14.1365 16.9346 13.5415L17.7139 12.6128C18.2134 12.0175 18.4629 11.7195 18.5987 11.3806ZM12.9391 11.494L12.3985 12.1382C13.3913 12.7014 14.6788 12.4913 15.4429 11.5806C16.3036 10.5549 16.1743 9.03 15.1545 8.17428C14.1347 7.31855 12.6103 7.45639 11.7499 8.48174C10.9857 9.39244 11.002 10.6966 11.7294 11.5767L12.27 10.9325C11.8847 10.3601 11.9043 9.57373 12.3782 9.00898C12.9514 8.32596 13.9592 8.24059 14.628 8.80178C15.2968 9.36297 15.3877 10.3703 14.8146 11.0533C14.341 11.6178 13.5697 11.774 12.9391 11.494Z" fill="white"/>
</svg>
