<svg width="24" height="24" viewBox="0 0 24 24" fill="none" xmlns="http://www.w3.org/2000/svg">
<path d="M0 12C0 6.85958 0 4.28936 1.36832 2.52506C1.70382 2.09246 2.09246 1.70382 2.52506 1.36832C4.28936 0 6.85958 0 12 0C17.1404 0 19.7106 0 21.4749 1.36832C21.9075 1.70382 22.2962 2.09246 22.6317 2.52506C24 4.28936 24 6.85958 24 12C24 17.1404 24 19.7106 22.6317 21.4749C22.2962 21.9075 21.9075 22.2962 21.4749 22.6317C19.7106 24 17.1404 24 12 24C6.85958 24 4.28936 24 2.52506 22.6317C2.09246 22.2962 1.70382 21.9075 1.36832 21.4749C0 19.7106 0 17.1404 0 12Z" fill="#3174F6"/>
<path d="M13.1504 7.20908H8.3605C8.3605 9.85684 6.21834 11.999 3.57058 11.999V16.7889C8.8661 16.7889 13.1504 12.5046 13.1504 7.20908Z" fill="white"/>
<path d="M10.2772 16.7893H15.0671C15.0671 14.1415 17.2093 11.9994 19.857 11.9994V7.20947C14.5615 7.20947 10.2772 11.4938 10.2772 16.7893Z" fill="white"/>
</svg>
